<svg xmlns="http://www.w3.org/2000/svg" xmlns:xlink="http://www.w3.org/1999/xlink" version="1.1" x="0px" y="0px" viewBox="0 0 131 163.75" enable-background="new 0 0 131 131" xml:space="preserve"><g><path d="M105.914917,49.8240623c0.0229492,0.131958,0.1485596,0.2203369,0.2805176,0.1973267l7.6173096-1.3256836   c0.010376-0.0018921,0.0222168-0.0042725,0.0325928-0.0068359c0.2684326-0.0653687,0.4331055-0.3359985,0.3676758-0.6044922   c-0.0654297-0.2684326-0.3360596-0.4330444-0.6044922-0.3676147l-7.512085,1.8300781   C105.973877,49.5770531,105.8929443,49.6977196,105.914917,49.8240623z"/><path d="M104.7076416,40.6408348c0.12146-0.2483521,0.0185547-0.5481567-0.2298584-0.6695557   c-0.248291-0.12146-0.5480957-0.0185547-0.6695557,0.2297974l-2.3511963,4.8092041   c-0.0537109,0.1108398-0.0162354,0.2474976,0.0909424,0.3133545c0.1142578,0.0701904,0.2636719,0.0344849,0.3338623-0.0797119   l2.8026123-4.5608521C104.692627,40.6697044,104.7006836,40.6551781,104.7076416,40.6408348z"/><path d="M104.5679932,47.1202049c0.071167,0.1136475,0.2210693,0.1481323,0.3347168,0.0769653l3.5665283-2.232666   c0.0162354-0.010376,0.0345459-0.0232544,0.0498047-0.0357056c0.2148438-0.1743774,0.2475586-0.4898071,0.0732422-0.7046509   c-0.1743164-0.2147827-0.4898682-0.2475586-0.7045898-0.0731812l-3.2668457,2.6518555   C104.5268555,46.878933,104.5021973,47.0150414,104.5679932,47.1202049z"/><path d="M107.0325928,51.917141c-0.1159668-0.0389404-0.2462158,0.0146484-0.2984619,0.1283569   c-0.0560303,0.1217651-0.0028076,0.2659302,0.1190186,0.3219604l4.5063477,2.0737305   c0.0153809,0.007019,0.0318604,0.0136719,0.0482178,0.0192261c0.2618408,0.0889282,0.5461426-0.0512695,0.6351318-0.3131104   c0.0888672-0.2617798-0.0512695-0.5461426-0.3131104-0.6350708L107.0325928,51.917141z"/><path d="M107.3842773,60.4898338c-2.0871582,0-4.1037598,0.3040771-6.015625,0.8601074   c-0.5656738-1.6229858-1.1218262-3.2073975-1.651123-4.7088013c3.2736816-1.2927246,5.4262695-3.9136353,5.1804199-6.399353   c-0.1201172-1.21875-0.8027344-2.2890625-1.9238281-3.0136719c-1.708252-1.1074219-4.2067871-1.3010864-6.7608643-0.5689697   c-0.1270447-0.3753319-0.3473434-1.0313301-0.447998-1.3870239c0.0626144-0.3065147,0.0077667,1.0311241,0.0291748-9.8487549   l10.3007813-9.0399761c0.3105469-0.2734375,0.3417969-0.7470703,0.0683594-1.0585938   c-0.2744141-0.3125-0.7470703-0.3408203-1.0585938-0.0683594c-0.1001129,0.0879154-10.6713562,9.3779125-10.5705566,9.2831402   c-0.3953857,0.3717346-0.1880112,0.2793732-0.2399902,9.8297729c-14.2004395,0.1604004-28.5588379-0.2408447-42.7095947-1.1950684   l-0.9749756-3.7694092h5.609375c2.3535156,0,4.4658203-1.4648438,4.9140625-3.40625   c0.2167969-0.9355469,0.0302734-1.9052734-0.5234375-2.7304688c-0.6660156-0.9912109-1.8144531-1.6845684-3.1503906-1.9013653   l-9.5878906-1.5546875c-2.5634766-0.4160156-5.0566406,0.171875-6.5224609,1.5263672   c-0.9052734,0.8388653-1.3505859,1.9296856-1.2548828,3.0732403c0.2304688,2.7529297,3.578125,4.9931641,7.4619141,4.9931641   h1.5036621l1.2575684,4.8625488c-1.4331055,2.3606567-5.4916992,7.954895-12.1235352,16.7127075   c-3.7409668-2.6210327-8.2797852-4.163147-13.171875-4.163147c-12.7548828,0-23.1318359,10.4541054-23.1318359,23.3046913   c0,12.8496094,10.3769531,23.3037109,23.1318359,23.3037109c12.7314453,0,23.0910645-10.4160156,23.1291504-23.2332153   l9.8708496-0.2269897c0.6068115,2.7196655,3.3312988,4.6048584,6.1959229,3.9262085   c1.9200439-0.4299927,3.4300537-1.9500122,3.8599854-3.8800049c0.3499756-1.6300049-0.0400391-3.2799683-1.0800781-4.5200195   c2.7932129-7.6986084,10.2893066-22.5701942,27.8485107-28.2055092c0.7711411,2.3131142,2.8976669,8.224865,5.0950928,14.5275879   C91.6165771,64.881134,85.6586914,72.9411316,85.6586914,82.377533c0,12.0693359,9.7460938,21.8876953,21.7255859,21.8876953   s21.7255859-9.8183594,21.7255859-21.8876953S119.3637695,60.4898338,107.3842773,60.4898338z M41.5883789,34.2867088   c-0.0576172-0.6933594,0.2050781-1.3144531,0.7802734-1.8466797c0.8710938-0.8066387,2.3183594-1.2578106,3.8994141-1.2578106   c0.4472656,0,0.9052734,0.0361328,1.3632813,0.1103516l9.5878906,1.5546856   c0.9277344,0.1503906,1.7099609,0.6083984,2.1445313,1.2568359c0.3251953,0.484375,0.4316406,1.0224609,0.3085938,1.5566406   c-0.2910156,1.2587891-1.8076172,2.2441406-3.453125,2.2441406h-8.6630859   C44.5395508,37.9048729,41.7504883,36.2144432,41.5883789,34.2867088z M102.159668,48.4869041   c0.515625,0.3339844,1.1503906,0.9345703,1.2460938,1.9013672c0.1689453,1.71875-1.5595703,3.7207031-4.0322266,4.7744141   l-2.4638672-7.1503906C98.9291992,47.4986229,100.8911133,47.6656151,102.159668,48.4869041z M50.8071289,46.2798729   c0.048584,0.1518555,0.1014404,0.3104858,0.1506348,0.4631958l0.0632324,0.244812   c0.0124512,0.0477905,0.0380859,0.0874023,0.0585938,0.1303101c2.7698784,8.5730782,6.4029121,18.5748177,9.4637451,27.1585732   c-1.4647598,0.809227-2.5105057,2.321907-2.637085,4.1908569l-9.8010254,0.2251587   c-0.4104004-6.7977295-3.7253418-12.8141479-8.708252-16.8091469   C44.0390625,55.7517357,48.5661621,49.6513329,50.8071289,46.2798729z M61.9975586,78.3736267l-2.5810547,0.0592651   c0.1174774-1.1752396,0.7434578-2.112854,1.6436768-2.7039795C61.378418,76.6238098,61.6928711,77.5097961,61.9975586,78.3736267z    M41.0725098,78.8543396c-0.3305664-4.6868896-2.4610596-8.8491821-5.6762695-11.711853   c1.0141602-1.3272705,2.0537109-2.6918945,3.0949707-4.0639687c4.6311035,3.7266273,7.7144775,9.3241615,8.1126709,15.6487465   L41.0725098,78.8543396z M36.989502,71.2616272l-6.776123,4.1307983c-0.387434-0.4297104-0.4341831-0.4463959-0.6605225-0.6403809   c1.4403076-1.8679199,3.1287842-4.0622559,4.928833-6.4140015C35.4301758,69.1950989,36.2729492,70.1771545,36.989502,71.2616272z    M21.2426758,84.1597595c-4.4176636-4.2040405,0.3893661-11.79245,6.1292725-9.0393677   c-5.1198311,6.6372299-5.2228985,5.5632324,3.1322021,5.4776001   C30.1140823,85.2026672,24.5879402,87.3460159,21.2426758,84.1597595z M30.416748,79.0991516l-4.2971191,0.0986938   c0.3073616-0.3967743,2.0116615-2.6034317,2.5106201-3.2498779C29.6344509,76.831665,30.1948242,77.8920517,30.416748,79.0991516z    M31.9436035,79.0640564c-0.1582031-1.062439-0.5498047-2.0635376-1.1518555-2.9408569l6.2280273-4.8186035   c1.215332,1.8527222,2.0482178,3.9996338,2.4052734,6.3167725C33.8436203,79.5644379,32.9963226,78.9058838,31.9436035,79.0640564z    M28.3138428,73.8995667c-0.6708984-0.3607788-1.3927002-0.6123047-2.1470947-0.7368164l1.5668945-8.2532349   c2.0422363,0.4085083,3.9348145,1.2648315,5.583252,2.4752808C31.7515869,69.4305725,30.0854492,71.6001892,28.3138428,73.8995667z    M26.1231689,73.1575012c-1.6013927-0.253891-3.1444454,0.0451965-4.4866943,0.7952881   c-0.3688221-0.4196091-5.1780834-6.1873474-5.2624512-6.2885132c2.9234409-2.2869186,6.5520496-3.406662,10.421875-2.9069214   L26.1231689,73.1575012z M15.6572266,68.245697c0.1005068,0.0998764,5.4126339,5.378334,5.8381348,5.7828369   c-1.7027588,1.003479-2.9389648,2.7097168-3.3369141,4.7081299c-2.5361328-0.291626-5.0457764-0.7312622-7.5112305-1.3181763   C11.2583008,73.759491,13.0742188,70.5383606,15.6572266,68.245697z M10.5081787,78.3813782   c2.5445557,0.2869263,5.0968018,0.4199829,7.6392822,0.4038086c-0.3287773,1.7129288-0.016222,3.383934,0.7561035,4.7741089   l-6.8780518,3.6092529C10.7483196,84.5326843,10.1723261,81.5483246,10.5081787,78.3813782z M18.967041,83.67099   c0.5569019,0.9600906,1.2207317,1.6319427,1.9824219,2.1826172c-0.5637112,0.2687454-0.5632992,1.8365784-3.9372559,7.2081299   c-1.8494873-1.2907104-3.3978271-3.017395-4.5345459-5.0368042L18.967041,83.67099z M21.6630859,86.3079529   c1.0838299,0.598732,2.294138,0.8981934,3.5437012,0.8646851c-0.0771484,2.8138428-0.0302734,5.62323,0.1152344,8.4221802   c-3.0692425,0.0668793-5.8426418-0.8437195-8.2142334-2.4714355C17.8144226,92.2362289,21.6535358,87.029686,21.6630859,86.3079529   z M26.2009277,87.0666199c0.7279053-0.125,1.4152832-0.3620605,2.0471191-0.6940308   c0.0404491,0.1041031,3.6461945,4.1133881,5.71875,5.9697876c-2.380249,1.9623413-5.3408203,3.1591187-8.5629883,3.2480469   C25.7994041,88.5789871,26.2454796,87.7627487,26.2009277,87.0666199z M34.0402832,92.2841492   c-2.1396389-2.3984833-4.4251709-5.8210297-4.9516602-6.4227295c0.8029785-0.5787354,1.4729004-1.3270264,1.9733887-2.1858521   c2.4277344,0.956543,4.8959961,1.7893677,7.3944092,2.4841309c-2.3905029-0.984314-4.7149658-2.1025391-6.9766846-3.3217163   c0.2955322-0.7091675,0.4812012-1.4737549,0.5307617-2.2746582l7.6101074-0.1749878   C39.5424805,85.2115784,37.3774414,89.497406,34.0402832,92.2841492z M36.4250488,78.9610901   c1.0169678-0.4135132,2.0209961-0.854187,3-1.3395996c0.0644531,0.4178467,0.1171875,0.8389893,0.1494141,1.2672729   L36.4250488,78.9610901z M25.0219727,101.9253845c-11.9277344,0-21.6318359-9.78125-21.6318359-21.8037109   c0-12.0234375,9.7041016-21.8046913,21.6318359-21.8046913c4.5518799,0,8.7772217,1.4278564,12.2655029,3.8577881   c-0.9697266,1.2776489-1.9901123,2.6176796-3.0623779,4.0213051C23.6110649,58.3707275,8.909668,66.3969955,8.909668,80.1216736   c0,9.3681641,7.2275391,16.9892578,16.1123047,16.9892578c8.8095703,0,15.9807129-7.4967651,16.1000977-16.7571411   l5.5280762-0.1270752C46.5935059,92.2007751,36.9147949,101.9253845,25.0219727,101.9253845z M66.6079102,79.681366   c-0.7711868,3.5896378-5.9277878,3.8777237-7.0441895,0.2483521c5.0846634-0.2647858,4.8953857,0.8784103,2.8969727-4.7396851   C65.1132813,74.7777405,67.1677246,77.1612244,66.6079102,79.681366z M65.7978516,74.4513855   c-1.1291504-0.7266235-2.4995117-0.9737549-3.845459-0.68927c-3.2001915-8.9711151-6.8097725-18.9175377-9.5568848-27.453373   l-0.414917-1.604126c14.03125,0.9336548,28.2652588,1.3254395,42.3370361,1.170105   C76.6248779,51.5941429,68.8233643,66.3506165,65.7978516,74.4513855z M107.3842773,102.7652283   c-11.1523438,0-20.2255859-9.1455078-20.2255859-20.3876953c0-8.7808228,5.5457764-16.2603149,13.2834473-19.1242714   c0.3781738,1.0899086,0.7580566,2.1906776,1.1357422,3.2948036c-6.0192871,2.4641113-10.3049316,8.6217651-10.3049316,15.8294678   c0,9.3681641,7.2275391,16.9892578,16.1113281,16.9892578s16.1113281-7.6210938,16.1113281-16.9892578   s-7.2275391-16.9892578-16.1113281-16.9892578c-1.5241699,0-2.9938965,0.2391968-4.3925781,0.6582031   c-0.3743896-1.0945435-0.7508545-2.1855507-1.1254883-3.2658119c13.0498734-3.7403221,25.7436523,6.2364922,25.7436523,19.5968666   C127.6098633,93.6197205,118.5366211,102.7652283,107.3842773,102.7652283z M96.7131348,71.8315125   c0.2082672,0.2104797,5.0199966,5.0726929,5.614502,5.6716309c-0.9040527,0.9511719-1.5412598,2.1552734-1.8070068,3.489563   c-2.5357666-0.2915649-5.0450439-0.7311401-7.5101318-1.3180542   C93.5117188,76.6725769,94.8288574,73.9726257,96.7131348,71.8315125z M103.5217285,78.431427   c0.4610596-0.4597778,0.9989014-0.8417969,1.5981445-1.1155396c1.651413,5.3197021,1.4498749,6.0582657,2.4587402,5.7872314   c0.9207458-0.2476349,0.6574783-0.8081207-1.0197754-6.2127075c3.3125839-0.5051727,6.2371216,2.0277328,6.3283691,5.329895   c0.0859375,3.0615234-2.3125,5.6220703-5.3476563,5.7080078c-4.849823,0.1761169-7.6117477-5.859436-4.0488281-9.4669189   c0.1253662,0.0755005,0.2480469,0.1550903,0.3847656,0.2125244   C103.7473145,78.6046448,103.6362305,78.5160828,103.5217285,78.431427z M92.8713379,80.6375427   c2.5441895,0.2869263,5.0959473,0.4198608,7.6383057,0.4037476c-0.328537,1.7134552-0.0160217,3.3841705,0.7567139,4.774231   l-6.8775635,3.6089478C93.1167297,86.7991867,92.5347443,83.8172302,92.8713379,80.6375427z M101.329834,85.9272156   c0.5559158,0.9581909,1.220047,1.6308441,1.982666,2.182373c-0.5636826,0.2687302-0.563591,1.8365402-3.9372559,7.2079468   c-1.8493652-1.2906494-3.3977051-3.0172729-4.5344238-5.0366821L101.329834,85.9272156z M104.026123,88.5640564   c1.0651093,0.5884781,2.2721252,0.8982849,3.5437012,0.8644409c-0.0771484,2.8136597-0.0303955,5.6231079,0.1151123,8.4221191   c-0.1009521,0.0021973-0.1990967,0.0161743-0.3006592,0.0161743c-2.916748,0-5.630127-0.9204712-7.9134521-2.4876099   C100.181778,94.4866867,104.0151901,89.2872391,104.026123,88.5640564z M108.5637207,89.3226013   c0.7280273-0.1248779,1.4154053-0.3619385,2.0472412-0.6939087c0.0401535,0.1034622,3.6419678,4.1094513,5.7183838,5.9694214   c-2.380249,1.9622803-5.3405762,3.1589966-8.5625,3.2481079C108.1613464,90.8492355,108.6081848,90.0200882,108.5637207,89.3226013   z M116.402832,94.5398254c-2.2920456-2.569931-4.3198166-5.7056885-4.951416-6.4223022   c0.4919434-0.3545532,0.9311523-0.7755127,1.3165283-1.2427979c2.5391846,0.6279297,5.1021729,1.1270752,7.677124,1.4848633   c-2.4140625-0.6356201-4.7814941-1.4085083-7.105957-2.2772217c0.6263428-1.0172729,0.9968262-2.2044678,1.0383301-3.4710083   c2.5583496-0.6729736,5.0450439-1.5640259,7.420166-2.663208C122.6632919,85.7380829,120.440094,91.1681671,116.402832,94.5398254z    M114.3444824,81.6190491c-0.1540527-1.4559937-0.7441406-2.8095093-1.7069092-3.9050293l4.9490967-6.4040527   c2.1960449,2.2753906,3.7072754,5.2772217,4.2104492,8.6342773   C119.3544922,80.7217712,116.8571777,81.2763977,114.3444824,81.6190491z M111.9436035,77.0329895   c-0.9390869-0.8146362-2.0500488-1.3529663-3.2485352-1.5803223l1.5678711-8.2592773   c2.7935791,0.5942383,5.2961426,2.0401001,7.2692871,4.06427L111.9436035,77.0329895z M108.6553955,75.4438782   c-0.967392-0.1777191-1.7432022-0.1444168-2.5479736,0.0056763c-0.7999268-2.5234375-1.7010498-5.2403564-2.6318359-7.9816284   c1.2463379-0.3677368,2.5533447-0.5796509,3.9086914-0.5796509c0.6606445,0,1.3062744,0.0629883,1.9438477,0.1535034   L108.6553955,75.4438782z M104.6705322,75.8814392c-0.8314209,0.3534546-1.5782471,0.8624268-2.208374,1.4914551   c-0.734581-0.8989563-4.7768326-5.8584671-5.0915527-6.2446289c1.3486328-1.3499146,2.9354248-2.4290161,4.6904297-3.1603394   C102.984375,70.6874695,103.8778076,73.381134,104.6705322,75.8814392z"/><path d="M58.826416,104.5971375c-2.3763428,0.1436157-4.7526855,0.2871704-7.1291504,0.4307251   c-0.0959473,0.0057983-0.0965576,0.1558838,0,0.1500244c2.3764648-0.1435547,4.7528076-0.2871704,7.1291504-0.4307251   C58.9223633,104.7413635,58.9230957,104.5913391,58.826416,104.5971375z"/><path d="M51.1967773,105.0157166c-8.8747559,0.2548218-17.7497559,0.5096436-26.6245117,0.7644653   c-0.0963135,0.0028076-0.0966797,0.152771,0,0.1500244c8.8747559-0.2548218,17.7497559-0.5097046,26.6245117-0.7645264   C51.2932129,105.1629333,51.2935791,105.0129089,51.1967773,105.0157166z"/><path d="M96.8200684,103.6023254c-7.5837402,0.3260498-15.1672363,0.6520996-22.7509766,0.9781494   c-0.0961914,0.0041504-0.0966797,0.1541748,0,0.1499634c7.5837402-0.3259888,15.1672363-0.6520386,22.7509766-0.9780884   C96.9162598,103.7481995,96.916748,103.598175,96.8200684,103.6023254z"/></g><text x="0" y="146" fill="#000000" font-size="5px" font-weight="bold" font-family="'Helvetica Neue', Helvetica, Arial-Unicode, Arial, Sans-serif">Created by Vectors Point</text><text x="0" y="151" fill="#000000" font-size="5px" font-weight="bold" font-family="'Helvetica Neue', Helvetica, Arial-Unicode, Arial, Sans-serif">from the Noun Project</text></svg>