<svg xmlns="http://www.w3.org/2000/svg" xmlns:xlink="http://www.w3.org/1999/xlink" version="1.1" x="0px" y="0px" viewBox="0 0 131 163.75" enable-background="new 0 0 131 131" xml:space="preserve"><g><g><g><path d="M59.4172096,64.4045715c-0.0078125,0-0.0166016,0-0.0253906,0l-23.0722656-0.1118164     c-2.7119141-0.0131836-4.9072266-2.2329102-4.8945313-4.9482422l0.0585938-11.9956055     c0.0058594-1.3110352,0.5244141-2.5444336,1.4599609-3.4716797c0.9296875-0.9223633,2.15625-1.4291992,3.4570313-1.4291992     c0.0078125,0,0.015625,0,0.0234375,0l23.0742188,0.1118164c2.7050781,0.0131836,4.8945274,2.2329102,4.8818321,4.9482422     l-0.0585938,11.9960938c-0.0058594,1.3164063-0.5224571,2.5507813-1.4531212,3.4760742     C61.9435768,63.8992004,60.7189674,64.4045715,59.4172096,64.4045715z M36.4006081,43.4480286     c-1.0351563,0-2.0117188,0.4038086-2.7529297,1.1386719c-0.7451172,0.7402344-1.1591797,1.7226563-1.1640625,2.7670898     l-0.0585938,11.9956055c-0.0107422,2.1640625,1.7382813,3.9331169,3.8984375,3.9433594l23.0732422,0.1118164     c1.0029297,0.027832,2.0253906-0.3974609,2.7666016-1.1337891c0.7421875-0.7373047,1.1533203-1.7216797,1.1582031-2.7714844     l0.0585938-11.9960938c0.0107422-2.1640625-1.7333984-3.9331055-3.8857422-3.9433594l-23.0742188-0.1118164     C36.4201393,43.4480286,36.4064674,43.4480286,36.4006081,43.4480286z"/></g></g><g><path d="M65.0700378,39.1949768l-34.1899376-0.1599731c-2.3932686-0.0603981-4.4399414,1.9387589-4.4399414,4.3900146    l-0.1000977,19.789978c-0.0100098,2.4400024,1.9599609,4.4299927,4.3999023,4.4400024l34.1899376,0.1699829    c0.0102539,0,0.0102539,0,0.0200195,0c2.3794403,0,4.3990021-1.9041901,4.420166-4.3999634l0.0898438-19.7900391    C69.4699402,41.1949768,67.4999695,39.2049866,65.0700378,39.1949768z M30.850071,40.5350037c0.0100098,0,0.0100098,0,0.0200195,0    l34.1899376,0.1599731c1.6101074,0.0100098,2.9099121,1.3200073,2.8999023,2.9300537l-0.0898438,19.7999878    c-0.0213699,1.644249-1.3628387,2.8999634-2.920166,2.8999634H64.940155l-34.2001915-0.1699829    c-1.5998535-0.0100098-2.9099121-1.3200073-2.8999023-2.9299927l0.1000977-19.789978    C27.9401588,41.8878098,29.1815777,40.5350037,30.850071,40.5350037z"/><path d="M104.400116,39.3849792l-17.7700195-0.0799561c-1.1000977,0-2,0.8899536-2,1.9899902l-0.2202148,43.9099731    c0,1.1000366,0.8901367,2.0100098,1.9902344,2.0100098l17.7597656,0.0900269c0.0102539,0,0.0102539,0,0.0200195,0    c0.5300293,0,1.0200195-0.210022,1.4001465-0.5800171c0.3798828-0.3800049,0.5900879-0.8800049,0.5900879-1.4100342    l0.2199707-43.9199829C106.3901062,40.2950134,105.4999695,39.394989,104.400116,39.3849792z M104.6701355,85.3050232    c0,0.1300049-0.0500488,0.2599487-0.1401367,0.3499756c-0.1000977,0.0999756-0.2199707,0.1500244-0.3598633,0.1500244    l-17.7602539-0.0900269c-0.2797852,0-0.5-0.2299805-0.5-0.5l0.2202148-43.9199829c0-0.2700195,0.2199707-0.4899902,0.5-0.4899902    l17.7600098,0.0799561c0.2800293,0,0.5,0.2300415,0.5,0.5L104.6701355,85.3050232z"/><path d="M126.47995,87.7450256c-0.2099609-0.2200317-0.5-0.3400269-0.8098145-0.3400269l-4.880127-0.0200195    c0.7900391-1.75,1.2399902-3.6900024,1.25-5.7299805l0.1101074-22.4500122    c0.0200195-0.6599731,0.3999023-16.1400146-8.3300781-25.1900024c-8.9682465-9.2845497-19.9948502-5.2494965-35.3300781-6.3399658    c0.7000122-1.9815788-0.7142715-4.0917358-2.9299316-4.1199951l-54.6799278,0.5799561    c-1.9178276,0.0234089-3.3129578,1.9070892-3.0400391,3.2700195C10.3879509,27.6924286,4.4191046,33.8345146,4.3801003,41.355011    L4.1901588,81.0849915c-0.0400391,7.7399902,6.2299805,14.0700073,13.9697266,14.1099854l2.2602539,0.0100098    c0.3410378,6.5259247,5.4827633,11.8098907,11.9399414,11.8500366h0.0600586    c6.4388046,0,11.5773659-5.2521515,11.9799805-11.7300415l6.3598633,0.0300293    c0.2128983,6.6996689,5.4610214,12.0699158,11.9301758,12.0899658h0.0598145c3.300045,0,6.2900352-1.3999634,8.4699669-3.6499634    c2.0700684-2.1500244,3.4001465-5.0800171,3.5300293-8.3300171l33.1799316,0.1600342h0.0700684    c1.8300781,0,3.5800781-0.3500366,5.1799316-1l12.4602051,0.0599976c0.3098145,0,0.5898438-0.1100464,0.8098145-0.3300171    c0.2202148-0.210022,0.3400879-0.5,0.3400879-0.8099976l0.0200195-4.9899902    C126.8100281,88.2549744,126.6999207,87.9649963,126.47995,87.7450256z M20.9001198,25.6349792    c69.5099792-0.7372494,51.7170219-0.5799561,54.6899376-0.5799561c1.2862625,0,2.1210098,1.5716076,1.1899414,2.6099854    l-57.4399376-0.2800293C19.1883526,26.6273594,19.8796692,25.6592903,20.9001198,25.6349792z M32.4201393,105.5550232h-0.0500488    c-5.8205929-0.0414658-10.4602051-4.9491425-10.4602051-11.0900269c0-5.8852615,4.6064339-10.9899902,10.5102539-10.9899902    h0.0498047c5.6809578,0.0203094,10.4599609,4.838295,10.4599609,11.0499878v0.039978    C42.9299049,100.4599686,38.3364563,105.5550232,32.4201393,105.5550232z M62.7499733,105.9449768h-0.0500488    c-5.5501404-0.019722-10.4499512-4.6785507-10.4499512-11.0899658c0-2.832077,1.0561943-5.6545029,3.1201172-7.7999878    c1.9899902-2.0500488,4.6098633-3.1799927,7.3898926-3.1799927h0.0500488c2.800045,0.0099487,5.4299278,1.1699829,7.3998985,3.25    c1.7600098,1.8599854,2.8100586,4.25,3.0200195,6.8299561c0.0300293,0.3400269,0.0400391,0.6700439,0.0400391,1.0100098    c0,0.1600342,0,0.3300171-0.0200195,0.4899902C72.9899597,101.2950134,68.3600769,105.9449768,62.7499733,105.9449768z     M107.9999695,94.1250305h-0.0598145c-12.7700195-0.0600586-23.7602539-0.1100464-33.2102051-0.1600342    c-0.2099609-2.9699707-1.4099121-5.7299805-3.4299316-7.8699951c-2.25-2.3900146-5.2700195-3.710022-8.4799767-3.7199707    h-0.0600586c-3.1899414,0-6.1999512,1.289978-8.4699707,3.6399536c-2.0400391,2.1199951-3.2600098,4.8600464-3.4899902,7.8300171    c-2.2800293-0.0100098-4.4099121-0.0200195-6.3901367-0.0300293c-0.318737-6.5064697-5.4813614-11.8198547-11.9299316-11.8399658    c-6.3398438-0.0100098-11.6398926,5.1599731-12.0397949,11.7299805c-1.4702148-0.0100098-2.0800781-0.0100098-2.25-0.0100098    h-0.0400391c-6.9101563-0.039978-12.5-5.6999512-12.4599609-12.5999756l0.1899414-39.7299805    c0.0297852-6.8600464,5.5998535-12.4299927,12.4499512-12.4800415c15.8215294,0.0777512,60.5755577,0.299242,79.9399414,0.3900146    c15.8553162,0.0804234,22.380127,14.3497391,22.380127,29.9000244l-0.1101074,22.4699707    C120.5099792,88.5249939,114.9098816,94.1250305,107.9999695,94.1250305z M125.2900085,93.1850281l-9.3200684-0.0400391    c1.6201172-1.1300049,2.9899902-2.5800171,4.0200195-4.2699585l5.3200684,0.0299683L125.2900085,93.1850281z"/><path d="M46.0365944,45.9958191c-2.4577637,1.1350288-5.4564552,4.2521477-6.482666,6.777832    C41.4804726,51.9021339,45.0413208,48.4705505,46.0365944,45.9958191z"/><path d="M60.3886452,55.0662537c-1.638092,0.2461815-3.2927856,1.8820686-3.5266113,3.5516357    C58.5110054,58.3747635,60.1523666,56.7209778,60.3886452,55.0662537z"/><path d="M42.1330299,61.5917053c1.1713867-0.6592407,2.2473145-1.4136963,3.2963867-2.1962891    c2.6240845-1.9287415,6.5877838-5.374588,8.6542969-7.9717407c-3.2098083,1.4720459-7.0474586,4.5670776-9.4277344,7.0991821    C43.7475319,59.4755554,42.8835182,60.4762268,42.1330299,61.5917053z"/><path d="M102.6252136,72.4195862l-1.2568359-0.0060425c-0.4973145-0.0024414-0.90625,0.4024658-0.9086914,0.8997803    s0.4025879,0.906189,0.8999023,0.9086304l1.2568359,0.0060425c0.4973145,0.0024414,0.90625-0.4024658,0.9086914-0.8997803    S103.1225281,72.4220276,102.6252136,72.4195862z"/><path d="M32.4499245,89.0149841h-0.0297852c-2.9852009,0-5.2900391,2.5425415-5.2900391,5.4700317    c0,2.983696,2.2982578,5.5077438,5.2600098,5.5299683h0.0300293c2.9738007,0,5.2897949-2.5401306,5.2897949-5.4799805    C37.7099342,91.512825,35.3659782,89.0259552,32.4499245,89.0149841z M32.4201393,98.5149841    c-0.0102539,0-0.0102539,0-0.0200195,0c-2.0893707-0.0113678-3.7700195-1.8165894-3.7700195-4.0199585    c0-2.0879745,1.6069527-3.9800415,3.7900391-3.9800415c0.0097656,0,0.0097656,0,0.0200195,0    c2.1156693,0.0115128,3.7697754,1.8401718,3.7697754,4.0200195    C36.2099342,96.6559601,34.5514259,98.5149841,32.4201393,98.5149841z"/><path d="M62.7800026,89.4049988c-0.0100098,0-0.0200195,0-0.0200195,0c-2.9611206,0-5.2900391,2.5072327-5.2900391,5.4799805    c0,3.1357498,2.4118767,5.5093689,5.2600098,5.5300293c0.0100098,0,0.0200195,0,0.0200195,0    c2.7526054,0,5.0177956-2.1801529,5.260006-4.9799805C68.3812485,92.4671707,66.0353851,89.4301605,62.7800026,89.4049988z     M62.7499733,98.9150085h-0.0100098c-2.0431786-0.0105972-3.7700195-1.7556076-3.7700195-4.0200195    c0-2.1932602,1.6966286-3.9899902,3.7900391-3.9899902h0.0100098c2.4660988,0.0140228,4.1099815,2.4948959,3.7299767,4.5200195    C66.2721558,97.4554367,64.6169968,98.9150085,62.7499733,98.9150085z"/></g></g><text x="0" y="146" fill="#000000" font-size="5px" font-weight="bold" font-family="'Helvetica Neue', Helvetica, Arial-Unicode, Arial, Sans-serif">Created by Vectors Point</text><text x="0" y="151" fill="#000000" font-size="5px" font-weight="bold" font-family="'Helvetica Neue', Helvetica, Arial-Unicode, Arial, Sans-serif">from the Noun Project</text></svg>