<svg xmlns="http://www.w3.org/2000/svg" xmlns:xlink="http://www.w3.org/1999/xlink" version="1.1" x="0px" y="0px" viewBox="0 0 131 163.75" enable-background="new 0 0 131 131" xml:space="preserve"><g><path d="M63.3048439,45.5050049c0-4.6599731-3.7800293-8.4500122-8.4299316-8.4500122   c-4.6401367,0-8.4199219,3.7900391-8.4199219,8.4500122c0,4.6500244,3.7797852,8.4400024,8.4199219,8.4400024   C59.5248146,53.9450073,63.3048439,50.1550293,63.3048439,45.5050049z M54.8749123,52.4450073   c-3.8100586,0-6.9199219-3.1099854-6.9199219-6.9400024c0-3.8400269,3.1098633-6.9500122,6.9199219-6.9500122   c3.8200684,0,6.9299316,3.1099854,6.9299316,6.9500122C61.8048439,49.335022,58.6949806,52.4450073,54.8749123,52.4450073z"/><path d="M78.1549454,55.7550049c4.6398926,0,8.4199219-3.789978,8.4199219-8.4500122   c0-4.6599731-3.7800293-8.4500122-8.4199219-8.4500122c-4.6501465,0-8.4299316,3.7900391-8.4299316,8.4500122   C69.7250137,51.9650269,73.5047989,55.7550049,78.1549454,55.7550049z M78.1549454,40.3549805   c3.8200684,0,6.9199219,3.1200562,6.9199219,6.9500122c0,3.8300171-3.0998535,6.9500122-6.9199219,6.9500122   s-6.9299316-3.1199951-6.9299316-6.9500122C71.2250137,43.4750366,74.334877,40.3549805,78.1549454,40.3549805z"/><path d="M101.3248672,56.9249878c4.6501465,0,8.4299316-3.789978,8.4299316-8.4499512   c0-4.6600342-3.7797852-8.4500122-8.4299316-8.4500122c-4.6499023,0-8.4299316,3.789978-8.4299316,8.4500122   C92.8949356,53.1350098,96.6749649,56.9249878,101.3248672,56.9249878z M101.3248672,41.5250244   c3.8200684,0,6.9299316,3.1199951,6.9299316,6.9500122c0,3.8299561-3.1098633,6.9499512-6.9299316,6.9499512   s-6.9299316-3.1199951-6.9299316-6.9499512C94.3949356,44.6450195,97.5047989,41.5250244,101.3248672,41.5250244z"/><path d="M128.8548889,89.2949829c-0.8598557,0.1400146-3.0200119,0.2900391-6.0100021,0.4400024   c0.130127-4.3399658,0.4001465-9.9400024,0.6799316-15.8399658c0.2299805-0.1199951,0.4501953-0.2700195,0.6501465-0.4500122   c0.6499023-0.5900269,1.0300293-1.4000244,1.0700684-2.2700195c0.0598145-1.1900024-0.5200195-2.2600098-1.4401855-2.8800049   c0.5700684-11.8099976,1.0200195-22.9199829,0.3701172-25.3699951c-1.3400879-5.0100098-4.3601074-8.9599609-8.2800293-10.8399658   c-1.8701172-0.9000244-3.8999023-1.3200073-6-1.6199951V18.8450317c2.9199219-0.75,5.0700684-3.3900146,5.0700684-6.5400391   c0-3.7199707-3.0300293-6.7600098-6.7600098-6.7600098H90.9847794c-3.7299805,0-6.7597656,3.0400391-6.7597656,6.7600098   c0,3.4200439,2.5498047,6.25,5.8498535,6.6900024v9.5100098c-8.3598633-0.5299683-17.5400391-0.7799683-28.1098671-0.7799683   h-0.6401367c-5.4899902,0.0099487-10.7600098,0.2399902-15.0300293,3.039978s-6.6699219,7.7199707-8.5998535,11.6699829   c-6.3183784,12.9353905-6.0901699,12.3875694-6.2900372,13.2000122c-3.3500977-0.2000122-6.8701172-0.3900146-10.5-0.5700073   C6.7152996,54.3241463,7.3048096,54.0385323,5.8048453,54.4450073c-2.4499509,0.6500244-4.3798828,3-4.4899902,5.460022   c-0.9963033,23.1482162,8.7186775,46.4338608,28.3200684,59.8499756c4.4296207,2.9675522,7.5601444,3.412735,13.66992,4.2200317   c0.0078125,0.0077515,0.020752,0.0073853,0.0310059,0.0077515c-8.5461426-0.8135376-17.0539532-3.7435303-25.4960918-0.9727783   c-0.0913086,0.0299683-0.0522461,0.1748657,0.0397949,0.1446533c9.3225098-3.0597534,18.7180157,0.8549805,28.1774883,1.1587524   c0.1047783,0.0033646,9.0433655,1.1416016,21.4179726,1.1416016c18.2095947,0,31.0535583-2.8890152,31.2041016-2.9100342   c7.9477539,0.40448,15.9443359,1.8388062,23.708252-1.6172485c0.109375-0.048645,0.0317383-0.2287598-0.0812988-0.192749   c-8.2382965,2.6270981-14.4288025,2.2827454-22.28125,1.5023193c4.3463669-1.2970963,14.8062592-3.3619461,21.0100098-10.432312   c4.2700195-4.8900146,8.4999924-15.4599609,8.6901779-21.75v-0.0299683l0.0297852-0.8699951L128.8548889,89.2949829z    M121.3448868,89.8250122c-1.7902374,0.0818863-3.6127243,0.162674-5.119873,0.2199707   c0.8668518-1.8619919,0.3924255-2.8673019,0.5297852-8.4499512c0-3.1400146-2.5598145-5.7000122-5.6999512-5.7000122h-1.8598633   c-3.1401367,0-5.6999512,2.5599976-5.6999512,5.7000122c0.1700134,5.2554932-0.4423523,6.8055496,0.7299805,8.8499756   c-1.8200684,0.0499878-3.6401367,0.0900269-5.4401855,0.1300049c1.2396393-2.125206,0.5898895-3.7297058,0.7700195-8.9400024   c0-3.1400146-2.5500488-5.7000122-5.6999512-5.7000122h-1.8598633c-3.1401367,0-5.7001953,2.5599976-5.7001953,5.7000122   c0.1992645,5.1238785-0.5285721,6.8965378,0.880127,9.1099854c-2.4678345,0.0238647-4.0731125,0.0034027-5.6901855-0.0100098   c1.3985901-2.2375641,0.669632-3.9512253,0.8701172-9.0999756c0-3.1400146-2.5500488-5.7000122-5.6899414-5.7000122H74.794838   c-3.1398926,0-5.6899414,2.5599976-5.6899414,5.7000122v5.9400024c-7.5385399-4.2485809-6.5734329-8.7053528-5.6499062-16.2399902   l58.3498573,2.9500122h0.2102051C121.7250137,80.0750122,121.465004,85.5650024,121.3448868,89.8250122z M106.0150528,90.3950195   c-1.6437607-1.8746185-0.7839584-3.7851868-1.0200195-8.7999878c0-2.3200073,1.8798828-4.2000122,4.1999512-4.2000122h1.8598633   c2.3100586,0,4.1999512,1.8800049,4.1999512,4.2000122c-0.1989822,5.3762741,0.5002213,6.7611237-0.7998047,8.5199585   C111.794838,90.2150269,108.9249649,90.3049927,106.0150528,90.3950195z M89.084877,90.7349854   c-2.0597916-1.9813385-1.0041199-4.3308029-1.2900391-9.0999756c0-2.3099976,1.8901367-4.2000122,4.2001953-4.2000122h1.8598633   c2.3200684,0,4.1999512,1.8900146,4.1999512,4.2000122c-0.2677841,4.8979263,0.7101135,7.0054016-1.1699219,8.9899902   C94.1649551,90.6749878,91.5248184,90.7150269,89.084877,90.7349854z M70.6048965,81.6350098   c0-2.3099976,1.8798828-4.2000122,4.1899414-4.2000122h1.8701172c2.3100586,0,4.1899414,1.8900146,4.1899414,4.2000122   c-0.266983,4.8952332,0.7186356,7.0658112-1.1999512,9.0100098c-3.25-0.25-6.2900391-1.0200195-8.9899902-2.2800293   C70.559845,87.8138046,70.6243286,87.9637299,70.6048965,81.6350098z M123.7450333,71.0950317   c-0.0102539,0.1699829-0.0400391,0.3299561-0.1000977,0.4799805c-0.0800781,0.289978-0.25,0.539978-0.4799805,0.75   c-0.2900391,0.2700195-0.6899414,0.4299927-1.0800781,0.4500122c-0.0698242,0.0100098-0.1398926,0.0100098-0.2099609,0.0100098   l-58.2600136-2.9400024c0.0943947-1.1127853,0.1027756-2.4518204-0.0300293-3.5700073l58.4699745,2.9500122   c0.0700684,0,0.1401367,0.0099487,0.1999512,0.0299683c0.7202148,0.1099854,1.2800293,0.6500244,1.4401855,1.3400269   C123.7347794,70.7449951,123.7547989,70.9249878,123.7450333,71.0950317z M85.7250137,12.3049927   c0-2.8999634,2.3598633-5.2600098,5.2597656-5.2600098h17.2202148c2.8999023,0,5.2600098,2.3600464,5.2600098,5.2600098   c0,2.3099976-1.4899902,4.2700195-3.5700684,4.9700317c-0.4699707,0.1699829-0.9799805,0.2699585-1.5,0.2799683   c-0.0600586,0.0100098-0.1298828,0.0100098-0.1899414,0.0100098c-7.8139954,0-13.5613861,0-17.2202148,0   c-0.3098145,0-0.6098633-0.0299683-0.9099121-0.0899658C87.6048965,17.0549927,85.7250137,14.8950195,85.7250137,12.3049927z    M91.5748672,19.0650024h16.630127c0.0600586,0,0.1298828,0,0.1899414-0.0100098v11.210022   c-5.3601074-0.710022-10.8901367-1.2600098-16.8200684-1.6600342V19.0650024z M39.0448341,43.0950317   c1.8500977-3.7900391,4.1501465-8.5,8.0700684-11.0700073s8.9599609-2.7900391,14.2099609-2.7999878h0.6401367   c11.4334145,0,46.0155907,0.7341366,53.2800331,4.2099609c3.5297852,1.6900024,6.25,5.2900391,7.4799805,9.8800049   c0.5898438,2.2000122,0.1398926,13.2600098-0.4001465,24.4299927c-0.0598145-0.0100098-0.1298828-0.0199585-0.1899414-0.0199585   L63.344883,64.7550049c-0.4499512-2.0100098-1.329834-3.5800171-2.619873-4.6699829   c-2.7700195-2.3200073-13.6501465-3.4800415-27.7700195-4.3500366   C33.1069031,55.2154465,32.8101578,55.8672867,39.0448341,43.0950317z M43.5077248,124.0005493   c-0.0180664-0.0016479-0.0358887-0.0039063-0.0537109-0.0055542   C43.4674568,123.9962311,43.4938087,123.9986572,43.5077248,124.0005493z M118.834877,111.9349976   c-17.7497253,16.9818878-81.8581696,11.0218964-84.0400391,8.8400269   c-8.4532814-2.8402023-33.5832748-24.1917267-31.9799786-60.7999878c0.0874591-1.9768982,1.9017589-4.2200317,4.5900879-4.2200317   c2.8289695,0-3.7191231-0.0586853,13.4199219,0.7999878c7.1112862,0.354538,16.3740788,0.8576012,23.4899883,1.5400391   c13.9957352,1.3381767,16.3476028,2.3695526,17.4699707,6.5799561c2.1319275,8.0277252-6.6507759,19.5602646,9.7700233,25.6900024   c10.0754089,3.9400864,50.6396637,1.1332855,56.6201096,0.5200195   C127.6623306,96.9862061,123.616272,107.281044,118.834877,111.9349976z"/><path d="M109.1949844,112.7750244c6.0914841-1.2814941,11.9295502-5.9069443,14.619873-11.25   C119.1778793,106.834465,115.0419846,109.8722763,109.1949844,112.7750244z"/><path d="M29.8148556,113.1749878c1.1050529,2.2250519,3.2393208,4.1715851,5.630125,4.6900024   c0.8200684,0.1900024,1.6999512,0.2200317,2.5100098,0c-1.6201172-0.3800049-3.0100098-1-4.3100586-1.8299561   C32.3348732,115.2150269,31.1549435,114.164978,29.8148556,113.1749878z"/><path d="M38.2547951,85.4450073C44.0514412,79.0366211,39.4996643,68.625,30.7650509,68.625   c-5.5600586,0-10.0700684,4.5200195-10.0700684,10.0900269c0,2.5799561,0.9699707,4.9499512,2.5700684,6.7299805   l-2.8500977,2.6599731c-0.3100586,0.3000488-1.130127,1.0700073-0.880127,2.0700073c0.0700684,0.25,0.25,0.4500122,0.5,0.5300293   c2.935236,0.9502411,2.5481548,0.5334778,2.5200195,1.7000122c0,1.6099854,0.9602051,3.1599731,2.880127,4.5999756   c0.7600098,0.5700073,2.4399414,2.5599976,4.6298828,5.5200195c0.1401367,0.1900024,0.3701172,0.3099976,0.6000977,0.3099976   c0.0500488,0,0.1000977-0.0100098,0.1398926-0.0200195c0.0200195,0,0.0400391-0.0100098,0.0600586-0.0100098   c0.2399902,0,0.4799805-0.1300049,0.630127-0.3299561c2.1499004-2.9100342,3.8298321-4.9000244,4.5998516-5.4700317   c1.9099121-1.4400024,2.880127-2.9899902,2.880127-4.5999756l-0.0100098-0.2700195   c0-0.7115784-0.0285378-0.5927582,0.3098145-0.7200317l2.2099609-0.7099609c0.25-0.0800171,0.4401855-0.2800293,0.5-0.5300293   C42.3940582,88.4173889,39.6527672,87.1551666,38.2547951,85.4450073z M33.4449806,88.4349976   c0.9799805-0.2600098,1.8898926-0.6699829,2.7199707-1.2099609c-0.3281059,1.620636-1.2238541,5.3720779-2.6201172,4.4899902   C33.174305,91.4855957,33.3474693,91.224762,33.4449806,88.4349976z M22.1949825,78.7150269   c0-4.7399902,3.8398438-8.5900269,8.5700684-8.5900269c7.6147861,0,11.6055241,9.4241943,5.8498516,14.8699951   c-0.2011604-0.9115067-1.0361443-1.7209778-2.3601074-1.8800049c3.8470192-3.3938599,1.6025467-10.1599731-3.4897442-10.1599731   c-3,0-5.4401855,2.5800171-5.4401855,5.7600098c0,1.7699585,0.75,3.3499756,1.9401855,4.3999634   c-1.3491783,0.1686478-2.1659088,0.9946747-2.3500977,1.8699951C23.2450314,83.414978,22.1949825,81.1849976,22.1949825,78.7150269   z M27.6949825,81.3850098c-0.5400391-0.7299805-0.8701172-1.6599731-0.8701172-2.6699829   c0-2.3500366,1.7700195-4.2600098,3.9401855-4.2600098c3.3233013,0,5.098341,4.1780014,3.0698223,6.9199829   c-0.3626442-2.1544266-2.521328-2.9039383-4.2199688-2.3200073C28.3548946,79.4949951,27.8548946,80.4349976,27.6949825,81.3850098   z M28.0848751,88.4450073c0.0898838,2.8196487,0.2574196,3.0378494-0.1000977,3.2700195   c-1.4205856,0.8525238-2.2999115-2.857933-2.6298828-4.4899902C26.1849728,87.7550049,27.1048946,88.1749878,28.0848751,88.4450073   z M38.015049,90.3950195c-1.3288536,1.1911316,0.8039246,2.687973-2.8200684,5.3999634   c-1.0300293,0.7700195-2.880127,3.0800171-4.4299297,5.1600342c-1.5400391-2.0499878-3.4001465-4.3900146-4.4301758-5.1500244   c-3.6346169-2.7259598-1.4749641-4.2159042-2.8300781-5.4099731c-0.4095783-0.362709-1.0310097-0.4784546-2.3398438-0.9000244   c0.0698242-0.0800171,0.1599121-0.1699829,0.2800293-0.289978l2.3498535-2.2000122   c0.4462795,2.4967194,1.1181889,5.3075485,2.8601074,6.0900269c1.3389874,0.6209259,3.1543503-0.0540009,3.0400391-2.3000488   c-0.0050545-0.102562-0.1707249-3.464447-0.1601563-3.25c0-0.5719299-0.230608-1.2261124-0.7897949-1.4899902   c-0.8433647-0.392128-1.4059525,0.4048386-2.1801758-0.2799683c-0.4478836-0.4183426-0.0479259-0.9073257,0.4699707-1.0800171   c0.9160614-0.3194809,1.691412,0.1579208,2.1401367-0.3800049c0.5994244-0.5994263-0.9519882-3.1766815,0.9399414-3.8399658   c0.3300781-0.1200562,0.9699707-0.1200562,1.3000488,0c2.2142696,0.7762909-0.2925243,4.1099854,1.5800762,4.1099854   c3.1530037-0.1148071,2.3087807,1.7536087,0.8798828,1.4400024c-2.0778713-0.5818634-1.9026604,1.778595-1.9499493,2.7099609   c-0.0967522,2.2023392-0.4183273,3.480751,0.8298321,4.25c1.238903,0.7919769,3.2094574,0.2996979,4.1501465-2.6599731   c0.3498535-1.0900269,0.6298828-2.2000122,0.8200684-3.3200073c2.5455971,2.3872528,2.5217819,2.3459625,2.6298828,2.4899902   C38.5595703,90.0760574,38.3631554,90.0981827,38.015049,90.3950195z"/></g><text x="0" y="146" fill="#000000" font-size="5px" font-weight="bold" font-family="'Helvetica Neue', Helvetica, Arial-Unicode, Arial, Sans-serif">Created by Vectors Point</text><text x="0" y="151" fill="#000000" font-size="5px" font-weight="bold" font-family="'Helvetica Neue', Helvetica, Arial-Unicode, Arial, Sans-serif">from the Noun Project</text></svg>