<svg xmlns="http://www.w3.org/2000/svg" xmlns:xlink="http://www.w3.org/1999/xlink" version="1.1" x="0px" y="0px" viewBox="0 0 131 163.75" enable-background="new 0 0 131 131" xml:space="preserve"><g><path d="M21.7756538,57.7646103c-0.8110905-2.2755585,3.6070728,15.5688782,13.4208984,24.8355713   c0.0166016,0.0155029,0.0419922,0.0184937,0.0620117,0.0056763c0.0231934-0.0150757,0.0300293-0.0462646,0.0148926-0.0696411   c-1.2912598-2.0008545-2.645752-3.9245605-3.8908691-5.9229736C29.0694103,72.9884949,25.1758022,67.5435715,21.7756538,57.7646103   z"/><path d="M95.0644684,42.0996933c2.2357712,5.1819496,3.130127,10.1773033,3.130127,9.2999878   c-0.8523254-12.7866135-10.2297592-25.3326397-21.5100098-31.6300049   c-0.0300293-0.0100098-0.0600586-0.0100098-0.0700684,0.0200195c-0.0200195,0.0199585-0.0100098,0.0499878,0.0100098,0.0599976   C85.7326965,25.4607983,91.2871933,33.2067146,95.0644684,42.0996933z"/><path d="M88.563736,110.4526596c0.0964355,0,0.0966797-0.1500244,0-0.1500244   C88.4673004,110.3026352,88.4670563,110.4526596,88.563736,110.4526596z"/><path d="M49.0373726,121.8581161c-0.0070801-0.0214844-0.0280762-0.036377-0.0517578-0.0345459   c-0.0275879,0.0020752-0.0483398,0.0262451-0.0463867,0.0540161c0.1746025,2.3105927,1.7416573,5.4600754,4.114502,5.6431274   c0.2461967,0.016571-0.4008446-0.6657944-1.0981445-1.4526367   C51.4964561,125.5351334,49.9063072,124.5050964,49.0373726,121.8581161z"/><path d="M104.2746735,31.6996689c-7.420166-13.2600098-21.6000977-20.9099731-36.4101563-21.0300293l0.5600586-8.039978V2.5796745   c0-0.210022-0.0998535-0.4000244-0.25-0.539978c-0.0200195-0.0200195-0.0300293-0.0400389-0.0500488-0.0599974   c-0.1499023-0.1900024-0.3498535-0.2600098-0.4499512-0.3100586c-1.6599121-0.6199951-3.5500488-0.5999756-5.1899376,0.0700073   c-2.2225227,0.8985347-2.6302528,2.1348858-8.2299805,1.8900145c-0.2700195-0.0299683-0.4799805,0.1600342-0.5200195,0.4100344   s0.0998535,0.4899902,0.3400879,0.5699463c0.8898926,0.2700195,1.9299316,0.5599976,3.0397949,0.6600342   c-0.6398926,0.2399902-1.3098145,0.4099731-1.9899902,0.4899902c-0.2399902,0.0300293-0.4299316,0.2299805-0.4399414,0.4700317   c-0.0100098,0.2399902,0.1499023,0.4599609,0.3798828,0.5199585c4.8473701,1.1480064,8.5031891-2.9746444,11.5700645,0.0200195   l-0.2800293,3.8999634C49.7181816,11.1090565,33.8340378,21.094223,27.7646675,37.6396713   c-6.0601196,16.4994583-0.0508728,34.1278305,13.2099609,44.289978c0.0014648,0.0011597,0.0029297,0.0020752,0.0043945,0.0032349   c3.2947807,12.7884369,5.9362907,21.1469574,8.6728516,30.5695801c-1.6235199,1.3107605,1.409359,10.4729767,5.1328125,13.8771973   c3.426136,3.1182022,7.6675682,3.400032,11.8998985,3.400032c3.5100098,0,8.1799316-0.1700439,11.3701172-0.5   c1.9897461-0.210022,3.6298828-1.5800247,4.1799316-3.5100174l3.0500488-10.5599976   c0.1096191-0.4090576,0.3381348-1.1661987-0.1174316-1.8251343c5.8940811-14.9728088,11.5583725-26.1734314,15.657959-38.8154907   c0.1187973-0.2630463,6.8706894-7.9094391,8.1494141-19.9093628   C109.9954834,49.5554047,108.8349838,39.8530502,104.2746735,31.6996689z M58.784687,5.7496576   c-0.1601563,0.0300293-0.3100586,0.0599976-0.4702148,0.0800171c0.4401855-0.2200317,0.8701172-0.4700317,1.2700195-0.75   c0.3045692-0.2242246,0.2773666-0.7029138-0.0898438-0.8699951c2.8097382-0.81582,3.7600174-2.8575931,7.760006-1.6600344   c-0.0320129,0.5437346-0.1645813,1.89693-0.2900391,3.1900027l-0.2399902-0.1799927   C64.0512924,3.6499944,62.2928963,5.0650973,58.784687,5.7496576z M29.1745796,38.1496811   c11.5617523-31.4924583,57.1460228-35.408905,73.8000488-5.7200317c3.7900391,6.7900391,5.3398438,14.3500366,4.5400391,21.8600464   c-2.7800293,6.5899658-10.1401367,13.0999756-17.9101563,15.8599854   c-4.7399902,1.6900024-29.9499474,9.2799683-60.6599083-7.2300415   C26.1545601,54.8996811,26.2046089,46.2496567,29.1745796,38.1496811z M80.8576813,113.1510849   c-6.5878906,1.6281128-13.5656738,1.2982178-20.75317,0.3085938h-0.0002441   c-0.703495-5.3973007-1.9366646-15.8418884-3.1499023-23.9700928l0.0002441,0.000061   c17.0170174,4.1270599,29.8895683-3.6591797,30.4023399-3.8112793   C84.7851715,94.8534164,81.7714996,108.7083969,80.8576813,113.1510849z M88.7451324,81.984581   c-0.4532471,0.182457-0.4674072,0.5359192-0.800293,1.6549072l-0.0002441,0.0001831   c-9.2781754,5.3380585-20.708168,7.0945511-31.760006,4.1099854c-0.0571289-0.0189209-0.104248-0.0293579-0.1518555-0.0474243   c-1.3098145-4.7618408-1.940918-9.7120361-3.2783203-14.4725952c0.4513512,0.0652847,7.0707664,1.6200562,15.9501915,1.6200562   c7.2655106,0,16.230545-1.1378403,22.873291-3.8474731C90.1882477,74.5595322,89.5437164,78.2854233,88.7451324,81.984581z    M29.7646675,65.0396957C41.87817,71.2873917,51.352951,72.883522,52.1794624,73.1106796   c0.6938477,4.9993896,2.3930664,9.703064,3.6872559,14.5495605c-0.983696-0.3995132-6.198967-1.1724319-13.7932129-6.7783203   C37.0838242,77.2000198,32.327095,71.3854294,29.7646675,65.0396957z M42.8855171,83.3102036   c6.3296852,4.3042374,12.2424469,5.662735,12.4899902,5.7597656c1.2053947,7.9584732,2.5264359,19.0446854,3.1875,24.1694336   c-0.8594131-0.1246109,2.8965111,0.4622726-7.4628906-1.1292725   C48.3945198,102.7951202,45.9781837,95.1580963,42.8855171,83.3102036z M83.8444977,114.7896957l-3.0500488,10.5699463   c-0.3798828,1.3300171-1.5197754,2.2800293-2.8898926,2.4300537c-5.0900879,0.5199661-13.3798828,0.5999832-15.3100548,0.3499832   c-1.9399414-0.2600174-4.6999512-0.9600296-6.8000488-2.8700027c-2.5259552-2.3340607-4.2628555-6.5666351-4.8691406-9.9671021   c1.0141869,0.1524734,0.8761902-0.7664642,0.6154785-1.6730957c9.0026131,1.4333649,20.845829,3.8233948,31.643795,0.4301758   c0.2399902-0.0799561,0.4799805-0.0499878,0.6401367,0.0700073c0.0097656,0,0.0097656,0.0100098,0.0197754,0.0100098   c0.0100098,0.0100098,0.0300293,0.0200195,0.0400391,0.0299683   C83.9646149,114.2396469,83.9746246,114.3296738,83.8444977,114.7896957z M83.8772125,112.5690536   c-0.3676758-0.0783081-0.755127-0.0585938-1.1325684,0.0606079c-0.0900879,0.0300293-0.1699219,0.0499878-0.2600098,0.0800171   l-0.0039063,0.0010986c1.1142578-5.3357544,4.2150879-19.446228,6.7297363-28.0610962h0.0041504   c5.0868759-2.9737854,7.5523911-5.7594376,9.0046387-7.0751953   C94.3051147,88.6672058,89.1607819,99.1785049,83.8772125,112.5690536z M99.7346344,73.5196762   c-0.1364899,0.1461945-3.6710815,5.0347366-9.9799805,9.0299683l-0.0002441,0.0001831   c-0.0594482-0.3536606-0.3496323-0.6434479-0.7724609-0.6220093c0.8104095-2.8508072,3.4439774-10.7264175,3.0288086-11.1121216   c0.1008453-0.0628357,9.1515732-3.7746658,14.763916-12.0760498   C104.8429642,67.102562,99.9107132,73.5196762,99.7346344,73.5196762z"/></g><text x="0" y="146" fill="#000000" font-size="5px" font-weight="bold" font-family="'Helvetica Neue', Helvetica, Arial-Unicode, Arial, Sans-serif">Created by Vectors Point</text><text x="0" y="151" fill="#000000" font-size="5px" font-weight="bold" font-family="'Helvetica Neue', Helvetica, Arial-Unicode, Arial, Sans-serif">from the Noun Project</text></svg>