<svg xmlns="http://www.w3.org/2000/svg" xmlns:xlink="http://www.w3.org/1999/xlink" version="1.1" x="0px" y="0px" viewBox="0 0 131 163.75" enable-background="new 0 0 131 131" xml:space="preserve"><g><path d="M111.7126846,74.1995926l-0.2399902-1.7000122c8.562706-3.0162354,17.2621231-14.3100891,11.8400879-17.5600014   c-4.5733337-2.8821754-13.7650299,4.121212-17.0300293,8.8200073c-0.6629028-0.1526642-0.5106049-0.0725288-3.1699219-0.3699951   c-1.0974503-10.9611206-10.031395-20.3900146-22.8100586-20.3900146h-7.9299316l-0.9401855-10.1900024   c5.0406494-8.2581253-20.8619728-12.5077419-27.079834-5.039978c-1.5177956,1.8290749-1.3789787,4.269928,1.5,6.3200073   c0.4958076,2.4678955,1.8781929,9.3487625,1.7900391,8.9099731H36.8227921   c0.1144981-2.4451904-0.0898972-8.8095856-1.0100098-11.0899658c-3.1884918-7.9222717-17.1699219-5.4162292-17.1699219-0.4900513   c0,2.6236839,2.6195126,5.63797,5.9897461,6.0200195c1.5120125,0.1634445,3.1397152-0.2053986,4.4802246,0.0700073   c1.851696,0.3473701,0.517931,1.3055077,0.9299316,5.4899902h-5.8200684c-15.0935497,0-25.1119175,13.120121-22.5998535,27.6699867   l2.6799314,15.5C6.3428116,97.9096146,17.532753,107.099617,29.7927628,107.099617h44.9399414   c9.0140915,0,17.1434097-4.9346771,21.6899414-11.6600342c2.2446289-0.1939621-5.5563202,0.4801102,10.3000488-0.8900146   c2.1428146,2.757431,5.4898682,5.6858826,9.3500977,7.7000122c0.4154587,0.4154587,6.4546967,3.1625214,8.329834,0.3500366   c2.8384171-4.2541656-6.1639938-12.3790894-11.079834-15c0.1382065-1.4556503-0.1304245-2.4563599-0.1901855-3.0300293   c5.004837,0.6618195,16.6301346-0.2613678,16.6301346-5.2700195c0,0,0,0,0-0.0099487   C129.7627411,73.9425507,117.0224533,73.1637115,111.7126846,74.1995926z M123.3428116,58.8195839   c-0.7134171,3.835804-5.1092758,8.1506767-8.5300293,10.3599892c-0.0100098,0-0.0100098,0-0.0100098,0   c-0.9790955,0.6386948-2.2541046,1.2919693-3.5400391,1.7700195c-0.6125259-2.0282822,0.4429474-5.0796661-3.4299316-6.75   C113.4206467,56.5790977,124.5032883,52.7907867,123.3428116,58.8195839z M45.7727432,28.439579h0.0100098   c3.8278465-3.8275928,17.5129929-4.2860603,23.0998535,0.0599976h0.0102539   c1.9578934,1.5092506,1.9418411,3.0091076,0.8398438,4.1099854C63.6470108,39.1347809,40.2475319,34.5749588,45.7727432,28.439579z    M47.5828018,35.1195717c6.2073479,3.0241547,17.6562881,3.0077133,22.4799805-0.8099976l0.8000488,8.6900024H49.1726456   L47.5828018,35.1195717z M31.5727921,39.4096107c0.4775085-4.6340828-3.93293-3.1810226-6.7700195-3.460022   c-3.2123585-0.3661385-5.1200733-3.6230812-4.5700684-5.0900269c0.830452-2.3406563,11.5575905-4.8872471,14.1899414,1.6100464   c0.8205605,2.0722237,0.9994431,8.2594414,0.8901367,10.5299683h-3.7600098   C31.5527725,42.8976822,31.3275719,41.5443993,31.5727921,39.4096107z M74.7327042,105.599617H29.7927628   c-11.5500488,0-22.1000977-8.6400146-24.0100098-19.6900024l-2.6799314-15.5   c-2.3628075-13.614254,6.9396524-25.910038,21.119873-25.910038c0.1961193,0,8.7529144,0,8.2199707,0   c0.2147102,0,4.2772331,0,4.1601563,0h11.3398438h0.0200195h24.5h0.0500488h7.7900391   c6.5500488,0,12.369873,2.6300049,16.3999023,7.4199829c4.170166,4.9500122,5.8901367,11.6900024,4.7102051,18.4900551   l-2.6801758,15.5C96.8227921,96.9596024,86.2727432,105.599617,74.7327042,105.599617z M123.2527237,101.5695877   c-0.0100098,0.0499878-0.0300293,0.0999756-0.0700684,0.1400146c0.0100098,0.0200195,0,0.0299683-0.0197754,0.039978   c-1.1394424,2.2788849-9.3040771-1.1626205-14.7700195-7.5599976c2.1198425-0.7352448,3.8665161-2.5112991,4.6298828-5.0299683   C120.3006897,93.2170486,124.1835327,99.8964005,123.2527237,101.5695877z M111.6628799,88.4395828   c-0.4352188,2-2.0217438,3.9487-4.2802734,4.4799805c-0.6630478,0.178688-10.0801086,0.9386749-9.9799805,0.9300537   c2.2036514-3.6492233,2.8570251-7.5438004,3.4702148-11.4700317c1.8523636-11.5659943,2.5902328-12.8681564,2.3598633-17.4699707   c0.1001129,0.0108032,2.6633148,0.28759,2.5,0.2699585c1.5578232,0.1856689,3.3859177,1.1723633,3.5800781,2.5599976   C110.6752167,80.4978027,112.3839874,85.2891388,111.6628799,88.4395828z M118.1628799,83.2796097   c-0.2435226-0.1217651-1.620285,0.2639542-5.2402344-0.2700195l-1.0097656-7.3200073   c9.4169922-1.6978149,22.1986923,2.6073303,13.3999023,6.2200317h-0.0100098   c-0.2399902,0.0999756-0.4799805,0.1900024-0.7399902,0.2699585c-0.0100098,0.0100098-0.0100098,0.0100098-0.0200195,0.0100098   C123.0317841,82.7152939,120.4353256,83.2181091,118.1628799,83.2796097z"/><path d="M51.5727921,52.1395912c-0.0100098,0-0.0100098,0-0.0200195,0c-18.6599121,0-34.6101074,9.4199829-36.3200684,21.4400063   c-0.6699219,4.7199707,0.8300781,9.3800049,4.3300781,13.4899902c6.1699219,7.2299805,17.5698242,11.6900024,30.4799805,11.9100342   c0.3500977,0.0099487,0.6999512,0.0099487,1.0500488,0.0099487c12.8498535,0,24.4299316-4.1699829,31.0998535-11.2599487   c3.5-3.7200317,5.3200684-7.9400024,5.3200684-12.3000488c0-0.4099731-0.0200195-0.8099976-0.0500488-1.2199707   C86.4927139,61.8396034,70.7327042,52.1395912,51.5727921,52.1395912z M81.1028214,86.6995926   c-6.4702148,6.8699951-18.3300781,11-31.0300293,10.7800293c-18.0315857-0.3032074-35.2849846-10.111145-33.3500977-23.6900024   c1.6000977-11.3000526,16.9001465-20.1500282,34.8300781-20.1500282c0.0100098,0,0.0100098,0,0.0200195,0   c9.1899414,0,17.5598145,2.2700195,23.75,6c6.1899414,3.7199707,10.1899414,8.8900185,10.6398926,14.6900063   C86.3027725,78.6795731,84.6228409,82.9596024,81.1028214,86.6995926z"/><path d="M6.1028214,65.4195633c3.4899902-3.7199745,7.3398438-7.0199623,11.3498535-10.159977   c0.9199829-0.7657166-4.5745029,2.3757019-11.3999023,10.1099892C6.0227432,65.3996048,6.0727921,65.4495926,6.1028214,65.4195633z   "/><path d="M6.0828018,70.139595c0.3898926-0.5700073,0.7998047-1.1300049,1.25-1.6799927   c-0.4399414,0.5499878-0.8901367,1.0800171-1.3701172,1.5899658C5.8928604,70.1295853,6.0227432,70.2296219,6.0828018,70.139595z"/><path d="M14.532753,61.0795937c-1.6000977,1.3200073-3.1101074,2.7399902-4.5500488,4.2299843   c-0.869873,0.9100342-1.6398926,1.9000244-2.4199219,2.8699951c2.1098633-2.5299683,4.7600098-4.8100014,7.1000977-6.9699745   C14.7427139,61.1295815,14.6228409,61.0095863,14.532753,61.0795937z"/><path d="M36.7942276,64.8111649c2.5695801,7.1976318,4.3049316,14.6971436,6.4335938,22.0300903   c0.0253906,0.0872192,0.1555176,0.0508423,0.1357422-0.0373535c-1.6850586-7.4897461-4.206543-14.7001343-6.4248047-22.0326538   C36.9106827,64.6784744,36.7617569,64.7206497,36.7942276,64.8111649z"/><path d="M47.3210831,59.9375038c2.6164551,9.0369911,5.4475098,17.863224,9.3208008,26.4544716   c0.0322266,0.0717773,0.1582031,0.0199585,0.128418-0.0541992c-3.472168-8.6426392-6.9404297-17.4165039-9.3046875-26.4401283   C47.4412003,59.8043861,47.2942276,59.8444862,47.3210831,59.9375038z"/><path d="M60.9319229,62.9566689c2.7980957,6.3451576,4.7099609,13.1268959,6.5546875,19.7963295   c0.036377,0.1314697,0.2319336,0.0761108,0.2033691-0.0560913c-1.4978027-6.8990479-3.9731445-13.2860718-6.6208496-19.7979774   C61.0286026,62.7993813,60.8877335,62.8564491,60.9319229,62.9566689z"/><path d="M100.1826553,92.4796219c-0.0610352,0-0.0482941,0.0999756,0.0100098,0.0999756   c3.9501419-0.0872192,6.2762756,0.0187988,8.0500488-1.1099854c0.0408859-0.0408936,0.0109177-0.0900269-0.0200195-0.0900269   C108.2226944,91.3795853,107.8800583,90.6716461,100.1826553,92.4796219z"/><path d="M104.3628311,90.3595657l-2.0400391,0.5300293c-0.4754105,0.2377014,2.6433411,0.0508957,3.1699219,0   c0.7290115-0.0663528,1.8468094,0.0323257,3-0.9899902c0.0100098,0,0.0100098-0.0100098,0.0200195-0.0300293   c0-0.0299683-0.0100098-0.0599976-0.0400391-0.0599976C106.7885895,89.3740158,105.8293533,90.0687714,104.3628311,90.3595657z"/></g><text x="0" y="146" fill="#000000" font-size="5px" font-weight="bold" font-family="'Helvetica Neue', Helvetica, Arial-Unicode, Arial, Sans-serif">Created by Vectors Point</text><text x="0" y="151" fill="#000000" font-size="5px" font-weight="bold" font-family="'Helvetica Neue', Helvetica, Arial-Unicode, Arial, Sans-serif">from the Noun Project</text></svg>