<svg xmlns="http://www.w3.org/2000/svg" xmlns:xlink="http://www.w3.org/1999/xlink" version="1.1" x="0px" y="0px" viewBox="0 0 131 163.75" enable-background="new 0 0 131 131" xml:space="preserve"><g><path d="M95.431015,120.7452393c-19.6675873-0.2479095-19.5619965,1.4186249,0.0075684,0.7999878   c4.8886719-0.1353149,9.7773438-0.2984009,14.6655273-0.4893799c0.0263672-0.0010986,0.0476074-0.0223999,0.0480957-0.0490112   c0.0004883-0.0275879-0.0214844-0.0504761-0.0490723-0.0510254   C105.212265,120.8577881,100.3213959,120.7875977,95.431015,120.7452393z"/><path d="M127.4166107,45.5478516c-6.9255219-4.7883949-18.4139633-2.9641266-26.3400879-2.3800049   c-0.2600098-1.8300171-0.5100098-3.8400269-0.7700195-5.9000244c-1.9799805-15.6099854-3.7399902-26.7199707-8.4299316-27.4599609   c-6.7198257-1.0646667-16.9953156-0.0846882-23.4199219,0.0199585c-9.408699,0.1283035-12.0274734,2.4466343-14.920166,9.8000498   C43.7668991,44.3532562,43.4859009,45.6579285,41.19664,48.6178589c-1.4001465,1.8300171-3.1501465,3.2799683-5.1101074,4.4699707   V35.8578491c0-1.1300049-0.9199219-2.0499878-2.0500488-2.0499878h-0.4499512   c0.203495-2.0330143,0.1561203-4.6037788,1.7700195-6.1099854c0.8598633-0.8000488,2.5300293-1.1400146,3.6298828-1.5800171   c0.1801758-0.0700073,0.1601563-0.3300171-0.0397949-0.3500366c-2.0900879-0.1299438-4.7900391,0.7200317-5.6201172,2.8099976   c-0.4199219,1.0600586-1.1398926,3.3600464-1.2099609,5.2300415H31.776474c-1.1298828,0-2.0498047,0.9199829-2.0498047,2.0499878   v20.1400146c-4.0187359,1.4219322-8.5344639,2.4394112-12.6000977,3.6400146   c-0.9699707,0.289978-1.9699697,0.6199951-2.9299307,1.0299683v-7.0599976   c1.5300293,0.5100098,4.749999,1.539978,5.579833,1.539978c1.2399902,0,2.25-1.0099487,2.25-2.2399902   c0-1.2399902-1.0100098-2.25-2.25-2.25c-0.9399414,0-4.9199209,1.3200073-6.079833,1.710022   c-1.1501465-0.3800049-5.1501465-1.710022-6.0900879-1.710022c-1.2399902,0-2.25,1.0100098-2.25,2.25   c0,1.2300415,1.0100098,2.2399902,2.25,2.2399902c0.8300781,0,4.0600586-1.039978,5.5900879-1.539978v7.539978   c-1.9416599,1.0086899-3.4588985,2.399807-4.1101074,4.4700317c-0.0312052,0-2.178772,0.0690155-2.2099609,0.0700073   c-2.75,0.0700073-4.9299316,2.3800049-4.8500977,5.1300049l0.420166,15.3499756   c0.0100098,0.2000122,0.0898438,0.3900146,0.2399902,0.5200195c0.1398926,0.1399536,0.3198242,0.2099609,0.5100098,0.2099609   h0.0300293l5.9897461-0.1699829c0.0029869,0.100647,0.0332603,1.1206665,0.0302734,1.0200195   c-3.2001953,2.4500122-5.5302734,5.8499756-6.6901855,9.8200073c-0.1098633,0.3999634,0.1201172,0.8099976,0.5100098,0.9299927   c0.0700684,0.0199585,0.1401367,0.0299683,0.2099609,0.0299683c0.3300781,0,0.630127-0.2099609,0.7202148-0.539978   c0.9799805-3.3400269,2.8598633-6.25,5.4199219-8.4500122c0.0998535,0.6400146,0.2700195,1.289978,0.5498047,1.9100342   c-3.5998535,3.1199951-5.8798828,7.75-5.8798828,12.9099731c0,7.7258911,5.1149902,14.2626343,12.1091299,16.3363037   c-2.30371,0.0924683-4.6069326,0.2085571-6.9086905,0.401062c-0.0244141,0.0023193-0.0446777,0.0222778-0.0458984,0.0474854   c-0.0014648,0.0275879,0.0197754,0.0511475,0.0476074,0.0524902c3.940918,0.2442017,7.8776846,0.2740479,11.8146963,0.322876   c4.2731476,0.0251083,30.961113-0.701416,35.4199219-0.8312988c0.0266113-0.0007935,0.0488281-0.022644,0.0490723-0.0496216   c0.0002441-0.0275879-0.0219727-0.0501709-0.0495605-0.050354c-8.8626938-0.0673294-29.9789524-0.125473-30.1171875-0.1256104   c0.3825111-0.1546783,1.4272442-0.4559555,3.0009766-1.3933105c4.3922882,0.1092682,33.0468445-0.6026001,35.6298828-0.6700439   c0.0300293,0,0.0500488-0.0199585,0.0500488-0.0499878c0-0.0299683-0.0200195-0.0499878-0.0500488-0.0499878   c-3.9223099-0.0461578-30.2700119-0.3027802-34.119873-0.2200317c4.1499023-3.1099854,6.869873-8.0899658,6.869873-13.7199707   c0-3.5-1.0500488-6.75-2.8398438-9.460022c1.106369-0.0193176,11.6990318-0.128273,28.869873-0.4199829   c-0.7150421,8.0958405,2.7967834,15.8678436,9.1000977,20.6799927c-1.880127-0.0299683-3.7600098-0.0700073-5.6401367,0   c-2.4499512,0.1199951-4.8898926,0.210022-7.329834,0.5200195c-0.0300293,0-0.0500488,0.0200195-0.0500488,0.0499878   c0,0.0200195,0.0200195,0.0499878,0.0500488,0.0499878c2.4399414,0.2600098,4.8898926,0.3099976,7.3398438,0.3800049   c2.2700195,0.0400391,4.5400391-0.0700073,6.8200684-0.1499634c15.1340103,10.1585083,35.8400879-0.7598648,35.8400879-19.4800415   c0-3.6199951-0.8200684-7.0599976-2.2800293-10.1199951c0.2190704-1.260994,0.4492798-2.8046036,0.4899902-3.1300049   c3.5300293,5.5599976,4.7800293,12.1500244,3.5200195,18.6600342c-0.0800781,0.4099731,0.1899414,0.7999878,0.5898438,0.8800049   c0.0500488,0.0099487,0.1000977,0.0199585,0.1501465,0.0199585c0.3498535,0,0.6599121-0.25,0.7299805-0.6099854   c1.5369186-7.8857574-0.5283279-15.6208115-4.7199707-21.210022c0.1110001-1.0167084,0.2301941-2.0187912,0.3398438-3.5199585   c0.0100098-0.0100098,0.0200195-0.0200195,0.0300293-0.0400391c4.2900391-8.6699829,17.7600098-25.0899658,18.9599609-26.1900024   c0.8500977-0.7799683,1.2900391-1.8799438,1.2099609-3.0199585   C128.8865814,47.1578369,128.3365326,46.1878662,127.4166107,45.5478516z M7.6065531,54.1478271   c-0.6899414,0-1.25-0.5599976-1.25-1.2399902c0-0.6900024,0.5600586-1.25,1.25-1.25c0.5,0,2.6499023,0.6500244,4.5,1.25   C10.2564554,53.5078735,8.1065531,54.1478271,7.6065531,54.1478271z M19.776474,51.6578369c0.6899414,0,1.25,0.5599976,1.25,1.25   c0,0.6799927-0.5600586,1.2399902-1.25,1.2399902c-0.5,0-2.6499023-0.6399536-4.499999-1.2399902   C17.1265717,52.3078613,19.276474,51.6578369,19.776474,51.6578369z M31.2266693,35.8578491   c0-0.2999878,0.25-0.5499878,0.5498047-0.5499878c0.1549072,0,2.403717,0,2.2600098,0   c0.3000488,0,0.5500488,0.25,0.5500488,0.5499878v18.0800171c-1.0700684,0.5499878-2.1999512,1.0499878-3.3598633,1.5100098   V35.8578491z M3.9266214,85.3778687L3.526475,70.777832c-0.0600586-1.9299927,1.4702148-3.539978,3.4001465-3.5999756   l1.4299316-0.039978l0.5,18.0999756L3.9266214,85.3778687z M36.2864838,104.3578491   c0,8.658989-6.9958858,15.5300293-15.3498535,15.5300293c-8.45996,0-15.3500967-6.9700317-15.3500967-15.5300293   c0-8.5346756,6.850008-15.5300293,15.3500967-15.5300293C29.4036846,88.8278198,36.2864838,95.779953,36.2864838,104.3578491z    M33.8365326,93.4078369c-3.1000977-3.7099609-7.7299805-6.0800171-12.8999023-6.0800171   c-3.6201172,0-6.9899893,1.1600342-9.7399893,3.1500244c-0.2302246-0.5999756-0.3400879-1.2799683-0.4001465-2.0200195   c8.258687-5.9210739,20.0095711-3.104187,24.6699219,4.9300537C34.9166107,93.3978271,34.3665619,93.3978271,33.8365326,93.4078369   z M108.44664,96.527832c0,17.0646133-18.5586395,27.5108414-32.8400879,18.6700439   c-18.7745667-11.5908661-10.3917618-40.5200195,11.2299805-40.5200195c9.2499619,0,17.2089386,5.8928604,20.3000488,14.3399658   v0.0100098C107.9864349,91.3678589,108.44664,93.8978271,108.44664,96.527832z M70.9566498,76.4378662   c0.25,0.3299561,0.7199707,0.3999634,1.0498047,0.1599731c5.670166-4.2099609,12.8701172-5.8599854,19.7600098-4.5200195   c6.0700684,1.1700439,11.380127,4.4900513,15.1101074,9.3800049c-0.1201172,0.9800415-0.25,1.9200439-0.3798828,2.8099976   c-4.0700684-6.6499634-11.3601074-11.0899658-19.6601563-11.0899658c-11.5500488,0-21.1499023,8.5999756-22.8398438,19.8099976   c-16.648716,0.26828-26.6981049,0.378273-26.8300781,0.3800049c-4.7653427-9.1722717-17.3456573-12.538887-26.4501953-6.6500244   L10.196641,70.2578735c-0.1695452-4.6297607,0.3638983-7.1395912,7.3498526-9.1800537   c8.6456661-2.5700264,19.1475372-4.1724396,24.8300781-11.539978c2.4942474-3.2272034,2.8801193-4.8892212,12.5500488-29.3599854   c2.705822-6.7796526,4.6762657-8.7198019,13.5500488-8.8500376c4.7394333-0.0759583,9.7591476-0.5099487,15.5200195-0.5099487   c2.7697754,0,5.4099121,0.1199951,7.6398926,0.4699707c3.9499512,0.6199951,5.8898926,15.9899912,7.1799316,26.1699829   c0.4570618,3.5188103,1.0204849,8.1808128,1.6401367,11.210022c1.9243393,9.384182,7.2622452,2.851368,7.1398926,21.9199829   c-0.0200195,3-0.2099609,6-0.4899902,8.7700195c-3.8798828-4.5300293-9.1201172-7.5999756-15.0600586-8.75   c-7.2900391-1.4199829-14.9199219,0.3300171-20.9299316,4.7800293   C70.7864838,75.6378784,70.7164154,76.1078491,70.9566498,76.4378662z M126.7364349,50.1578369   c-1.0998535,1.0200195-12.3598633,14.7000122-17.75,23.8300171c1.0302505-22.5442581-5.3286896-17.2760849-7.0598145-25.6199951   c-0.2199707-1.0800171-0.4299316-2.3300171-0.630127-3.710022c7.6714249-0.5773697,18.8421707-2.3177376,25.3000488,2.1400146   c0.5200195,0.3599854,0.8300781,0.9099731,0.869873,1.5499878   C127.5164642,49.027832,127.2466888,49.6878662,126.7364349,50.1578369z"/><path d="M11.868516,55.1344604c0.0495605-0.0576172-0.0134277-0.1547852-0.0852051-0.1104126   c-0.9848633,0.6094971-1.9829102,1.1166382-3.1630859,1.1721802c-0.0456543,0.0021362-0.0446777,0.0664063,0,0.0703125   C9.8211527,56.3717041,11.0572367,56.0784912,11.868516,55.1344604z"/><path d="M86.8365326,87.1078491c-5.1205826,0-9.3200684,4.2114639-9.3200684,9.4199829   c0,5.2000122,4.1801758,9.4200439,9.3200684,9.4200439c5.1401367,0,9.3300781-4.2200317,9.3300781-9.4200439   C96.1666107,91.316452,91.9516296,87.1078491,86.8365326,87.1078491z M86.8365326,104.447876   c-4.3100586,0-7.8200684-3.5500488-7.8200684-7.9200439c0-4.2739639,3.4371948-7.9199829,7.8200684-7.9199829   c4.3149033,0,7.8300781,3.5526505,7.8300781,7.9199829C94.6666107,100.8978271,91.156601,104.447876,86.8365326,104.447876z"/><path d="M20.9366302,97.3678589c-3.8200684,0-6.9201651,3.1400146-6.9201651,6.9899902   c0,3.8599854,3.1000967,6.9899902,6.9201651,6.9899902c3.8198242,0,6.9299316-3.1300049,6.9299316-6.9899902   C27.8665619,100.5078735,24.7564545,97.3678589,20.9366302,97.3678589z M20.9366302,109.8478394   c-2.9899902,0-5.4201651-2.4599609-5.4201651-5.4899902s2.4301748-5.4899902,5.4201651-5.4899902   s5.4299316,2.4599609,5.4299316,5.4899902S23.9266205,109.8478394,20.9366302,109.8478394z"/><path d="M78.3565521,54.0778198c0-3.0299683,2.25-5.5,5.0100098-5.5c8.8359375-0.1571083,9.1042633,0.3558922,9.8200684-0.4699707   c0.8100815-0.9265442,0.3020477-0.1634254-4.0100098-30.4899902c-0.1101074-0.710022-0.6799316-1.2200317-1.3601074-1.2200317   c-27.1009789,0.3930779-27.8787613-0.9163675-28.4499512,1.0200195L48.7964935,53.6578369   c-0.1298828,0.4500122-0.0498047,0.9299927,0.2299805,1.2999878c0.2600098,0.3500366,0.6601563,0.5500488,1.0800781,0.5500488   h26.8798828C77.7466888,55.5078735,78.3565521,54.8678589,78.3565521,54.0778198z M50.2564545,54.0078735l10.5400391-36.1100464   H87.69664l4.3498535,29.1799927h-8.6799316c-3.5700684,0-6.4699707,3.1000366-6.5100098,6.9300537H50.2564545z"/><path d="M83.2164154,50.5178223c-1.1899414,0-2.1599121,0.9700317-2.1599121,2.1600342v1.7299805   c0,1.2000122,0.9699707,2.1699829,2.1599121,2.1699829h8.9902344c2.8406601,0,2.0831375-3.5510216,2.1699219-3.8999634   c0-1.1900024-0.9699707-2.1600342-2.1699219-2.1600342H83.2164154z M93.3765717,54.4078369   c0,0.6500244-0.5200195,1.1699829-1.1699219,1.1699829h-8.9902344c-0.6398926,0-1.1599121-0.5199585-1.1599121-1.1699829   c0.1139603-0.6333504-0.5038223-2.8900146,1.1599121-2.8900146h8.9902344   C93.8840485,51.5178223,93.2616501,53.7691727,93.3765717,54.4078369z"/><path d="M39.5164642,64.6278687c-3.7800293-0.1100464-7.5397949,0.0899658-11.2800293,0.3599854   c-3.75,0.2999878-7.4897461,0.6699829-11.2099609,1.3499756c3.7800293,0.1000366,7.5300293-0.0899658,11.2800293-0.3599854   C32.0565033,65.6778564,35.7964935,65.3078613,39.5164642,64.6278687z"/><path d="M38.7664642,67.8278198c-3.079834-0.1899414-6.1398926-0.0799561-9.1999512,0.1200562   c-3.0500488,0.2199707-6.1000977,0.5099487-9.1298828,1.1099854c3.0698242,0.1900024,6.1398926,0.0700073,9.1999512-0.1199951   C32.6866302,68.7178345,35.7466888,68.4278564,38.7664642,67.8278198z"/><path d="M40.276474,70.6278687c-2.5498047-0.1199951-5.0698242,0.0199585-7.579834,0.1699829   c-2.5200195,0.1900024-5.0300293,0.4000244-7.5400391,0.8599854c2.5300293,0.3200073,5.079834,0.2999878,7.5998535,0.1400146   C35.2864838,71.6178589,37.8065033,71.2978516,40.276474,70.6278687z"/><path d="M35.2564545,73.4678345c-1.8598633,0.1000366-3.7099609,0.2200317-5.5698242,0.5100098   c1.869873,0.2999878,3.7399902,0.3200073,5.5998535,0.2399902c1.8701172-0.0999756,3.7299805-0.2999878,5.5600586-0.7799683   C38.9664154,73.3178711,37.1065521,73.3878784,35.2564545,73.4678345z"/><path d="M122.2947845,49.2120361c-5.5216827-2.1443596-12.853981-2.6472397-18.6420898-1.2689819   C112.4206772,48.0873642,113.7684097,48.195282,122.2947845,49.2120361z"/><path d="M105.0081635,46.3615723c8.7686539,0.1443329,10.1151047,0.2522926,18.6420898,1.269043   C118.1195145,45.4828033,110.785965,44.9856567,105.0081635,46.3615723z"/><path d="M115.8416595,58.6147461c2.6295776-1.8027344,6.0449829-5.3635597,7.7692871-8.1478882   C121.011528,52.2529793,117.5803833,55.8005295,115.8416595,58.6147461z"/><path d="M111.0630951,67.3042603c1.3723755-1.6479034,7.3253555-9.475563,8.5429688-11.2268066   C117.6756439,57.489563,112.6304626,63.1515274,111.0630951,67.3042603z"/><path d="M50.2364349,57.3378296c-0.0200195-0.4199829-0.3798828-0.7399902-0.7897949-0.7199707   c-0.4101563,0.0200195-0.7302246,0.3699951-0.7102051,0.7799683c0.25,6.1100464,0.4001465,12.8900146,0.5400391,19.4500122   c0.1101074,5.3300171,0.2202148,10.3599854,0.380127,14.8800049c0.0100098,0.4000244,0.3400879,0.7200317,0.7399902,0.7200317   h0.0300293c0.4199219-0.0100098,0.7399902-0.3600464,0.7299805-0.7800293c-0.1599121-4.5-0.2700195-9.5299683-0.380127-14.8499756   C50.6365814,70.2478638,50.4864349,63.4578247,50.2364349,57.3378296z"/></g><text x="0" y="146" fill="#000000" font-size="5px" font-weight="bold" font-family="'Helvetica Neue', Helvetica, Arial-Unicode, Arial, Sans-serif">Created by Vectors Point</text><text x="0" y="151" fill="#000000" font-size="5px" font-weight="bold" font-family="'Helvetica Neue', Helvetica, Arial-Unicode, Arial, Sans-serif">from the Noun Project</text></svg>